<?xml version="1.0" encoding="UTF-8"?><svg xmlns="http://www.w3.org/2000/svg" xmlns:xlink="http://www.w3.org/1999/xlink" version="1.0" viewBox="0 0 283 162"><defs><path id="reuse-0" d="M49.91 52.76h168.6v51.02c-43.95 52.89-71.73 113.9-74.31 187.4H86.52c2.27-63.39 8.836-125.7 57.68-177.5H49.92v-61z" style="fill-rule:evenodd;fill:#fff"/><path id="reuse-1" d="M415.9 112.7v175.2h36.59V112.7H415.9zM285 113.794v39.94h56.56l-58.78 96.5v38.81h107.6v-38.81H321.6l71-100.9v-35.5H285zm200.7.063v176.2h39.94v-62.06h26.59c42.59-.146 43.72-115.5-2.25-114.2H485.7zm37.72 37.72h15.59c17.35-.595 17.71 38.94 0 36.5l-14.41 1.219-1.188-37.72z" style="fill-rule:evenodd"/><path id="reuse-2" d="M80.59-598.4h261.1v335.7H80.59v-335.7z" style="fill:#fff"/></defs><defs><clipPath id="cvfh"><use xlink:href="#reuse-0" style="fill-rule:evenodd;fill:#fff"/></clipPath><clipPath id="cvfg"><use xlink:href="#reuse-1" style="fill-rule:evenodd"/></clipPath><clipPath id="cvfe"><path d="M0-.063v345.6h603.39v-268.8h-334.5V-.042H.09z"/></clipPath><clipPath id="cvff"><use xlink:href="#reuse-2" style="fill:#fff" transform="rotate(90)"/></clipPath><filter id="cvfd" width="4" height="2" x="-.5" y="-.5"><feGaussianBlur stdDeviation="4"/></filter><filter id="cvfa" width="4" height="2" x="-.5" y="-.5"><feGaussianBlur stdDeviation="4"/></filter><filter id="cvfc" width="4" height="2" x="-.5" y="-.5"><feGaussianBlur stdDeviation="4"/></filter><filter id="cvfb" width="2" height="2" x="-.5" y="-.5"><feGaussianBlur stdDeviation="4"/></filter></defs><style>path{stroke-width:1px;fill:#000;stroke:#000}.PF{fill:#fff;stroke:#fff}</style><path d="M.026.192v161.81h283.412V36.149H126.323V.201H.068z"/><use xlink:href="#reuse-0" style="fill-rule:evenodd;fill:#fff" transform="matrix(.4697 0 0 .4682 .026 .221)"/><g clip-path="url(#cvfh)" transform="matrix(.4697 0 0 .4682 .026 .221)"><path d="M49.91 52.76h168.6v51.02c-43.95 52.89-71.73 113.9-74.31 187.4" style="fill:none;filter:url(#cvfd);stroke-width:10;stroke:#fff"/><path d="M144.2 291.2H86.52c2.27-63.39 8.836-125.7 57.68-177.5H49.92v-61" style="fill:none;filter:url(#cvfd);stroke-width:10;stroke:#000"/></g><g clip-path="url(#cvfe)" transform="matrix(.4697 0 0 .4682 .026 .221)"><path d="M603.4 345.6V76.8H268.9V.02H.1" style="fill:none;filter:url(#cvfc);stroke-width:10;stroke:#fff"/><path d="M0-.063v345.6h603.39" style="fill:none;filter:url(#cvfc);stroke-width:10;stroke:#000"/></g><use xlink:href="#reuse-2" style="fill:#fff" transform="matrix(0 .4613 -.467 0 .737 2.591)"/><use xlink:href="#reuse-1" style="fill-rule:evenodd" transform="matrix(.467 0 0 .4613 .737 2.591)"/><g clip-path="url(#cvfg)" transform="matrix(.467 0 0 .4613 .737 2.591)"><path d="M452.5 287.9V112.7h-36.59M390.41 289v-38.81h-68.78l71-100.9v-35.5h-107.6m240.7 176.3v-62.06m26.59 0c42.59-.145 43.72-115.5-2.25-114.2h-64.28m53.31 74.22-14.41 1.219-1.188-37.72" style="fill:none;filter:url(#cvfa);stroke-width:10;stroke:#fff"/><path d="M415.9 112.7v175.2h36.59m-167.5-174.2v39.94h56.56l-58.78 96.5v38.81h107.6m95.34-175.2v176.2h39.94m0-62.06h26.59m-28.81-76.44h15.59c17.35-.595 17.71 38.94 0 36.5" style="fill:none;filter:url(#cvfa);stroke-width:10;stroke:#000"/></g><g clip-path="url(#cvff)" transform="matrix(.467 0 0 .4613 .737 2.591)"><path d="M80.59-598.4h261.1M80.59-262.7v-335.7" style="fill:none;filter:url(#cvfb);stroke-width:10;stroke:#fff" transform="rotate(90)"/><path d="M341.7-598.4v335.7H80.6" style="fill:none;filter:url(#cvfb);stroke-width:10;stroke:#000" transform="rotate(90)"/></g></svg>