<?xml version="1.0" encoding="iso-8859-1"?>
<!-- Generator: Adobe Illustrator 16.0.0, SVG Export Plug-In . SVG Version: 6.00 Build 0)  -->
<!DOCTYPE svg PUBLIC "-//W3C//DTD SVG 1.1//EN" "http://www.w3.org/Graphics/SVG/1.1/DTD/svg11.dtd">
<svg version="1.1" id="Capa_1" xmlns="http://www.w3.org/2000/svg" xmlns:xlink="http://www.w3.org/1999/xlink" x="0px" y="0px"
	 width="512px" height="512px" viewBox="0 0 512 512" style="enable-background:new 0 0 512 512;" xml:space="preserve">
<g>
	<path d="M283.312,11.314C277.091,5.092,264.8,0,256,0H64c-8.8,0-16,7.2-16,16v480c0,8.8,7.2,16,16,16h384c8.801,0,16-7.2,16-16V208
		c0-8.8-5.092-21.091-11.312-27.313L283.312,11.314z M432,480H80V32h175.579c1.458,0.24,4.204,1.377,5.405,2.239l168.777,168.777
		c0.861,1.201,1.998,3.947,2.238,5.405V480z M448,0h-96c-8.801,0-10.908,5.091-4.688,11.313l105.373,105.373
		C458.908,122.909,464,120.8,464,112V16C464,7.2,456.801,0,448,0z"/>
</g>
<g>
</g>
<g>
</g>
<g>
</g>
<g>
</g>
<g>
</g>
<g>
</g>
<g>
</g>
<g>
</g>
<g>
</g>
<g>
</g>
<g>
</g>
<g>
</g>
<g>
</g>
<g>
</g>
<g>
</g>
</svg>
