<?xml version="1.0" encoding="UTF-8" standalone="no"?>
<!-- Created with Inkscape (http://www.inkscape.org/) -->
<svg xmlns:dc="http://purl.org/dc/elements/1.1/" xmlns:cc="http://creativecommons.org/ns#" xmlns:rdf="http://www.w3.org/1999/02/22-rdf-syntax-ns#" xmlns:svg="http://www.w3.org/2000/svg" xmlns="http://www.w3.org/2000/svg" xmlns:xlink="http://www.w3.org/1999/xlink" xmlns:sodipodi="http://sodipodi.sourceforge.net/DTD/sodipodi-0.dtd" xmlns:inkscape="http://www.inkscape.org/namespaces/inkscape" version="1.0" x="0" y="0" width="701.19739" height="625.41107" id="svg827" inkscape:version="0.47 r22583" sodipodi:docname="tuxpaint-icon.svg">
  <metadata id="metadata43">
    <rdf:RDF>
      <cc:Work rdf:about="">
        <dc:format>image/svg+xml</dc:format>
        <dc:type rdf:resource="http://purl.org/dc/dcmitype/StillImage"/>
      </cc:Work>
    </rdf:RDF>
  </metadata>
  <sodipodi:namedview pagecolor="#ffffff" bordercolor="#666666" borderopacity="1" objecttolerance="10" gridtolerance="10" guidetolerance="10" inkscape:pageopacity="0" inkscape:pageshadow="2" inkscape:window-width="640" inkscape:window-height="480" id="namedview41" showgrid="false" inkscape:zoom="0.31072952" inkscape:cx="341.87043" inkscape:cy="113.72971" inkscape:window-x="97" inkscape:window-y="76" inkscape:window-maximized="0" inkscape:current-layer="svg827"/>
  <defs id="defs829">
    <inkscape:perspective sodipodi:type="inkscape:persp3d" inkscape:vp_x="0 : 526.18109 : 1" inkscape:vp_y="0 : 1000 : 0" inkscape:vp_z="744.09448 : 526.18109 : 1" inkscape:persp3d-origin="372.04724 : 350.78739 : 1" id="perspective45"/>
    <linearGradient id="linearGradient888">
      <stop style="stop-color:#ffe06c;stop-opacity:1;" offset="0" id="stop889"/>
      <stop style="stop-color:#dea400;stop-opacity:1;" offset="1" id="stop890"/>
    </linearGradient>
    <linearGradient id="linearGradient882">
      <stop style="stop-color:#f54182;stop-opacity:1;" offset="0" id="stop883"/>
      <stop style="stop-color:#350714;stop-opacity:1;" offset="1" id="stop884"/>
    </linearGradient>
    <linearGradient id="linearGradient869">
      <stop style="stop-color:#ffcb7e;stop-opacity:1;" offset="0" id="stop870"/>
      <stop style="stop-color:#6a5318;stop-opacity:1;" offset="1" id="stop871"/>
    </linearGradient>
    <linearGradient id="linearGradient842">
      <stop style="stop-color:#e9ba73;stop-opacity:1;" offset="0" id="stop843"/>
      <stop style="stop-color:#493910;stop-opacity:1;" offset="1" id="stop844"/>
    </linearGradient>
    <linearGradient id="linearGradient837">
      <stop style="stop-color:#7d5d21;stop-opacity:1;" offset="0" id="stop838"/>
      <stop style="stop-color:#ffcb32;stop-opacity:1;" offset="1" id="stop839"/>
    </linearGradient>
    <radialGradient cx="381.29867" cy="593.75594" r="113.25515" fx="386.17806" fy="596.01457" id="radialGradient840" xlink:href="#linearGradient882" gradientTransform="scale(1.1165774,0.89559398)" gradientUnits="userSpaceOnUse"/>
    <radialGradient cx="0.3493976" cy="0.4453125" r="0.56970376" fx="0.3493976" fy="0.4453125" id="radialGradient841" xlink:href="#linearGradient888" spreadMethod="pad"/>
    <linearGradient x1="585.47313" y1="489.43571" x2="578.42898" y2="521.89751" id="linearGradient845" xlink:href="#linearGradient842" gradientTransform="scale(0.92856294,1.0769329)" gradientUnits="userSpaceOnUse"/>
    <linearGradient x1="513.00278" y1="645.42102" x2="521.72137" y2="615.19617" id="linearGradient864" xlink:href="#linearGradient837" gradientTransform="scale(1.128704,0.88597186)" gradientUnits="userSpaceOnUse"/>
    <linearGradient x1="540.40474" y1="790.11204" x2="551.2872" y2="768.24637" id="linearGradient874" xlink:href="#linearGradient837" gradientTransform="scale(1.3177775,0.75885347)" gradientUnits="userSpaceOnUse"/>
    <linearGradient x1="0.27848101" y1="0.6953125" x2="0.42405063" y2="0.9609375" id="linearGradient880" xlink:href="#linearGradient882"/>
    <linearGradient x1="0.52531648" y1="0.578125" x2="0.50632912" y2="0.7890625" id="linearGradient886" xlink:href="#linearGradient882"/>
  </defs>
  <path d="m 407.02305,202.14399 0,0 c -437.19986,835.72821 2.54482,-40.7171 7.63446,-48.86052 5.08963,-8.14342 12.21513,-22.39441 30.02886,-25.95715 17.81373,-3.56275 21.37647,8.14342 29.51989,20.35855 8.14342,12.21513 1.01793,27.48404 1.01793,27.48404 0,0 1.52689,3.56275 2.54482,1.01793 1.01793,-2.54482 5.5986,-33.08265 23.41233,-40.20814 17.81373,-7.12549 19.34062,-8.65238 35.1185,-3.56274 15.77788,5.08963 22.90337,37.15435 23.41233,43.26191 0.50897,6.10757 -2.03585,54.45913 -32.06471,76.85353 -30.02886,22.3944 -41.22607,-2.03585 -38.17228,-1.01793 3.05378,1.01793 -23.9213,-11.70616 -22.39441,-13.74202 1.52689,-2.03585 -5.5986,-12.21513 -5.08964,-10.17927 0.50897,2.03585 -8.65238,-1.52689 -6.61652,3.56274 2.03585,5.08964 -22.90337,-4.07171 -25.95716,-3.05378 -3.05378,1.01793 -18.83165,-6.61653 -19.34062,-10.17927 -0.50896,-3.56275 -3.05378,-15.77788 -3.05378,-15.77788 z" style="font-size:12px;fill:#d1a3c7;fill-rule:evenodd;stroke:#000000;stroke-width:1pt" id="path849"/>
  <g style="font-size:12px" id="g626" transform="translate(-30.17681,-14.499722)">
    <path d="m 732.25626,582.45117 c 30.18461,7.82563 35.4017,11.92478 36.51965,13.78803 3.7265,3.35384 2.9812,9.68888 2.2359,12.67008 -0.7453,2.9812 -1.11795,10.06154 -17.88717,7.08034 -16.76923,-2.9812 -40.99145,-10.43419 -40.99145,-10.43419 l 18.25983,-21.98632" transform="translate(-40.24615,-59.62392)" style="fill:url(#linearGradient874);fill-opacity:0.75;fill-rule:evenodd;stroke-width:1pt" id="path875"/>
    <path d="m 303.3424,698.12341 c 0,0 -22.72595,-27.09292 -30.53783,-52.93223 -5.42117,-17.93157 -11.70405,-36.57489 -4.0717,-90.59556 4.51019,-31.92248 22.93264,-58.1047 35.59039,-76.45114 l 13.27012,-19.23403 c 0,0 -57.73859,-62.5969 -122.0278,-106.58425 l -79.52184,-52.21245 c -8.14342,4.07171 -27.484047,4.07171 -35.627467,0 -8.14342,-4.07171 -22.903369,-26.46611 13.233058,-82.45213 4.07171,-2.03585 9.161349,-23.41233 41.735029,-40.7171 14.25098,-8.14342 41.73503,-4.07171 62.09358,3.05379 20.35855,7.12549 25.44818,23.41233 25.44818,23.41233 0,0 -6.10756,-31.55576 8.14342,-30.53783 23.41234,-3.56274 30.53783,57.00394 30.53783,57.00394 2.49367,11.71146 19.34062,34.10057 40.7171,52.93223 15.77787,12.48771 46.82467,37.66332 46.82467,37.66332 0,0 0.50896,-32.57368 9.16135,-46.3157 9.98206,-16.8447 16.7958,-22.90337 31.55574,-33.08265 10.68825,-5.5986 21.37648,-9.16134 33.59161,-12.21512 2.03586,-5.08964 6.10756,-117.06166 91.61348,-147.599492 85.50591,-30.537826 118.07959,46.824662 118.07959,46.824662 42.75296,82.45213 29.01093,204.60343 24.93923,223.43509 -2.03586,17.30477 10.68824,26.97508 10.68824,26.97508 0,0 109.93616,102.81067 100.77482,140.474 4.0717,42.75295 -42.75296,86.52384 -50.89638,93.64933 -1.01793,8.14342 -8.14342,84.48798 -8.14342,84.48798 l -407.171,1.01793 z" transform="translate(-40.24615,-59.62392)" style="fill-rule:evenodd;stroke-width:1pt" id="path846"/>
    <path d="m 473.33629,142.84397 c 12.21513,-2.03586 23.50349,2.9086 28.08416,10.54306 4.58068,7.63446 3.20808,4.4443 5.98031,18.86858 -0.2274,7.56941 -0.11916,14.00552 0.0722,15.81396 2.98162,2.80455 14.72386,-48.78835 50.86029,-44.71664 15.66498,1.19258 31.20646,7.89643 29.5199,38.17228 -8.65238,137.92918 -82.37194,75.88041 -87.55179,72.77249 -8.03684,-3.35337 -3.90606,-9.71762 -8.91022,-11.98012 -4.83699,-0.18035 -4.97875,4.92596 -11.36241,4.15349 -3.33463,-0.0459 -18.39859,-2.85228 -20.94341,-3.87021 -2.54482,-1.01793 -22.90337,-2.54482 -22.3944,-22.90337 -3.05379,-19.34062 9.89773,-65.93787 36.64539,-76.85352 z" transform="translate(-40.24615,-59.62392)" style="fill:#ffffff;fill-rule:evenodd;stroke-width:1pt" id="path853"/>
    <path d="m 482.95376,202.72133 c 0,-8.43816 -5.75601,-15.27863 -12.85641,-15.27863 -7.1004,0 -12.85641,6.84047 -12.85641,15.27863 0,8.43816 5.75601,15.27863 12.85641,15.27863 7.1004,0 12.85641,-6.84047 12.85641,-15.27863 l 0,0 z" transform="matrix(-0.993474,-0.209364,0.204835,-1.015442,851.0699,446.8114)" style="fill-rule:evenodd;stroke-width:1pt" id="path876"/>
    <path d="m 439.23572,242.60086 c 11.1972,-0.50896 60.05772,10.68824 82.45212,26.46612 22.39441,15.77787 32.57368,40.20813 30.53783,59.54875 -1.82584,16.8891 -8.74084,54.51853 -34.60954,61.07565 -39.98863,9.49822 -73.65057,-3.0093 -120.11544,-20.8675 -55.52367,-21.14423 -49.87846,-129.27681 41.73503,-126.22302 z" transform="translate(-40.24615,-59.62392)" style="fill:#ffbc00;fill-rule:evenodd;stroke-width:1pt" id="path844"/>
    <path d="m 420.40407,312.83786 c 0.004,-13.77881 -6.14962,-24.95268 -13.74202,-24.95268 -7.5924,0 -13.74612,11.17387 -13.74202,24.95268 -0.004,13.77881 6.14962,24.95268 13.74202,24.95268 7.5924,0 13.74612,-11.17387 13.74202,-24.95268 z" transform="matrix(0.968234,0.25004,-0.25004,0.968234,46.31459,-152.8958)" style="fill-rule:evenodd;stroke-width:1pt" id="path847"/>
    <path d="m 367.2158,699.53472 c -2.76678,-1.31751 -13.19946,-12.10274 -16.06924,-18.58079 -2.8698,-6.47805 -43.76423,-65.50029 -29.4153,-128.84123 14.34891,-63.34095 58.11314,-38.14853 60.98293,-66.22008 2.86978,-28.07155 9.3268,-48.94527 47.35145,-53.26397 38.02466,-4.31871 68.1574,12.23631 78.9191,40.30787 10.76169,28.07155 29.4153,81.33553 29.4153,105.80816 0,24.47264 -1.43489,83.49488 -1.43489,83.49488 0,0 -2.52507,25.97984 -15.3104,36.45496 l -154.43895,0.8402 z" transform="translate(-40.24615,-59.62392)" style="fill:#ffffff;fill-rule:evenodd;stroke-width:0.99837503pt" id="path850"/>
    <path d="m 572.95816,608.3077 c 34.90146,-1.46042 63.474,-18.67854 74.85452,-30.93561" style="fill:none;stroke:#ffffff;stroke-width:11;stroke-linecap:round;stroke-linejoin:round" id="path851"/>
    <path d="m 558.60159,528.04436 58.50598,17.88718 -2.23591,18.25982 -16.02392,18.25983 -51.05299,-11.17949 3.35386,-23.10427 7.45298,-20.12307 z" transform="translate(-40.24615,-59.62392)" style="fill:url(#linearGradient864);fill-rule:evenodd;stroke-width:1pt" id="path861"/>
    <path d="m 579.70657,471.07459 c 0,22.13425 8.4321,31.62036 10.01312,33.72838 5.27006,10.54011 30.03934,25.8233 30.03933,49.01156 -3.68903,22.13425 -17.39119,27.40431 -23.71526,32.67437 -6.32407,5.27006 -12.12114,21.60725 -10.01311,21.08024" transform="translate(-40.24615,-59.62392)" style="fill:none;stroke:#ffffff;stroke-width:9.5;stroke-linecap:round;stroke-linejoin:round" id="path854"/>
    <path d="m 510.90246,566.42724 0,0 c -2.60854,-24.96752 8.57094,-52.17093 8.57094,-52.17093 l 39.8735,13.78803 c 0,0 -6.70769,21.24102 -7.45299,25.34016 -0.7453,4.09915 -4.09915,17.51453 -4.09915,17.51453 l -36.8923,-4.47179 z" transform="translate(-40.24615,-59.62392)" style="fill:url(#linearGradient845);fill-rule:evenodd;stroke-width:1pt" id="path862"/>
    <path d="m 507.1906,168.90109 c 2.69597,-10.68951 -1.13128,-20.83711 -8.54839,-22.6653 -7.41712,-1.82819 -15.6154,5.35532 -18.31137,16.04483 -2.69597,10.68951 1.13128,20.83711 8.54839,22.6653 7.41712,1.82819 15.6154,-5.35532 18.31137,-16.04483 l 0,0 z" style="fill-rule:evenodd;stroke-width:1pt" id="path877"/>
    <path d="m 419.02175,585.03169 c 11.55214,-1.11795 30.00377,-14.59727 38.20206,-16.08787 8.19829,-1.49059 14.53333,4.84445 25.71281,3.35385 18.28631,0.59094 28.69401,-5.96239 28.69401,-5.96239 -1.4906,0.7453 0.37265,-19.75043 2.60855,-26.45812 0,-10.43418 6.33504,-25.34016 6.33504,-25.34016 0,0 -15.27863,-16.02394 -33.91111,-15.65128 -1.49059,-0.74529 -26.08546,0.87317 -38.01024,9.68889 -24.59487,19.37777 -31.1482,36.53062 -34.65641,51.05297 -1.4906,3.7265 -1.11794,18.25983 -0.37265,21.24103 0.7453,2.98119 5.39794,4.16308 5.39794,4.16308 z" transform="translate(-40.24615,-59.62392)" style="fill:url(#radialGradient840);fill-rule:evenodd;stroke-width:1pt" id="path885"/>
  </g>
</svg>